<?xml version="1.0" encoding="UTF-8" standalone="no"?><!DOCTYPE svg PUBLIC "-//W3C//DTD SVG 1.1//EN" "http://www.w3.org/Graphics/SVG/1.1/DTD/svg11.dtd"><svg width="100%" height="100%" viewBox="0 0 800 800" version="1.1" xmlns="http://www.w3.org/2000/svg" xmlns:xlink="http://www.w3.org/1999/xlink" xml:space="preserve" xmlns:serif="http://www.serif.com/" style="fill-rule:evenodd;clip-rule:evenodd;stroke-linejoin:round;stroke-miterlimit:2;"><g opacity="0.1"><path d="M552.757,514.039c-8.939,2.641 -16.058,3.627 -25.407,3.627c-76.588,0 -189.04,-267.631 -189.04,-356.709c0,-32.784 7.756,-43.728 18.714,-53.123c-93.738,10.944 -206.206,45.337 -242.177,89.064c-7.772,10.958 -12.492,28.124 -12.492,50.011c0,139.059 148.424,454.591 253.121,454.591c48.432,0 130.089,-79.623 197.281,-187.461" style="fill-rule:nonzero;"/><path d="M503.869,98.5c96.85,0 193.776,15.618 193.776,70.289c0,110.919 -70.349,245.334 -106.245,245.334c-64.066,0 -143.749,-178.142 -143.749,-267.221c0,-40.616 15.618,-48.402 56.218,-48.402" style="fill-rule:nonzero;"/></g></svg>